<?xml version="1.0" encoding="UTF-8"?>
<svg id="_레이어_2" data-name="레이어 2" xmlns="http://www.w3.org/2000/svg" viewBox="0 0 78.12 78.12">
  <defs>
    <style>
      .cls-1 {
        fill: #05f;
      }

      .cls-2 {
        fill: #04c;
      }

      .cls-3, .cls-4 {
        fill: #fff;
      }

      .cls-5 {
        fill: #ff6b00;
      }

      .cls-6 {
        opacity: .2;
      }

      .cls-7 {
        opacity: .8;
      }

      .cls-4 {
        fill-rule: evenodd;
      }
    </style>
  </defs>
  <g id="_레이어_1-2" data-name="레이어 1">
    <g>
      <path class="cls-2" d="M77.29,78.12H.83c-.46,0-.83-.37-.83-.83V.83C0,.37,.37,0,.83,0H77.29c.46,0,.83,.37,.83,.83V77.29c0,.46-.37,.83-.83,.83ZM1.66,76.45H76.45V1.66H1.66V76.45Z"/>
      <g>
        <g class="cls-6">
          <path class="cls-1" d="M14.13,23.37l24.93-12.57,24.93,12.57v19.16h0c-1.76,9.52-7.61,17.82-16.01,22.65l-8.92,5.14-10.28-5.57c-8.29-4.5-13.79-12.83-14.65-22.22h0V23.37Z"/>
        </g>
        <path class="cls-2" d="M39.06,71.15c-.14,0-.27-.03-.4-.1l-10.28-5.57c-8.55-4.65-14.19-13.2-15.09-22.88V23.37c0-.31,.17-.6,.45-.74l24.93-12.57c.24-.12,.51-.12,.75,0l24.93,12.57c.28,.14,.46,.43,.46,.74v19.16c-1.82,9.94-7.8,18.41-16.43,23.37l-8.92,5.14c-.13,.07-.27,.11-.41,.11ZM14.96,23.88v18.65c.84,9.05,6.15,17.11,14.22,21.49l9.87,5.35,8.52-4.91c8.2-4.72,13.89-12.77,15.61-22.08V23.88s-24.11-12.15-24.11-12.15L14.96,23.88Z"/>
      </g>
      <path class="cls-3" d="M20.78,46.54l-3.32,6.65,1.66,2.49,4.99,5.82,9.97,5.82,4.99,2.49,3.32-1.66,11.63-7.48,5.82-5.82-.83-3.32-3.32-5.82-4.99-3.32h-4.99l-7.48,.83-6.65-1.66-6.65,1.66-4.16,3.32Z"/>
      <g class="cls-7">
        <path class="cls-5" d="M33.65,58.06c-.43,.37-.92,.65-1.45,.85-.54,.2-1.09,.3-1.67,.3-.44,0-.87-.05-1.28-.17-.41-.12-.79-.28-1.15-.48-.35-.22-.68-.47-.97-.76-.29-.3-.55-.61-.76-.98-.21-.35-.37-.73-.49-1.15-.11-.42-.17-.83-.17-1.28s.06-.86,.17-1.28c.12-.4,.28-.78,.49-1.15,.21-.35,.47-.68,.76-.98,.29-.3,.62-.55,.97-.75,.36-.22,.74-.38,1.15-.48,.41-.12,.84-.18,1.28-.18,.58,0,1.13,.1,1.67,.3,.54,.2,1.02,.48,1.45,.86l-.99,1.61c-.27-.28-.59-.52-.97-.66-.37-.17-.76-.25-1.17-.25s-.8,.08-1.16,.23c-.36,.17-.67,.37-.94,.63-.27,.27-.48,.58-.63,.95-.16,.37-.23,.75-.23,1.15s.08,.8,.23,1.15c.15,.37,.37,.68,.63,.95,.27,.27,.58,.48,.94,.63s.74,.23,1.16,.23,.8-.08,1.17-.23c.37-.17,.69-.38,.97-.68l.99,1.63Zm2.95-6.5v3.72h1.86c.25,0,.5-.05,.72-.13,.23-.1,.42-.23,.59-.42,.17-.17,.3-.37,.4-.58,.1-.23,.15-.48,.15-.73s-.05-.5-.15-.71c-.09-.23-.23-.43-.4-.6-.17-.17-.37-.3-.59-.4-.22-.1-.47-.15-.72-.15h-1.86Zm0,7.45h-1.86v-9.31h3.73c.34,0,.67,.05,.99,.13,.32,.08,.61,.22,.88,.38,.28,.15,.53,.35,.75,.58,.23,.22,.42,.48,.58,.75,.16,.28,.29,.58,.38,.9,.09,.32,.14,.63,.14,.98,0,.52-.1,1-.29,1.45s-.46,.85-.8,1.18c-.34,.35-.73,.61-1.19,.8-.45,.2-.93,.3-1.44,.3h-1.86v1.86Zm15.8-4.62c0,.45-.06,.86-.17,1.28-.11,.42-.27,.8-.48,1.15-.21,.37-.46,.68-.75,.98-.29,.3-.62,.55-.97,.76-.36,.2-.74,.37-1.15,.48-.41,.12-.84,.17-1.28,.17s-.87-.05-1.28-.17c-.41-.12-.79-.28-1.15-.48-.36-.22-.68-.47-.97-.76-.29-.3-.55-.61-.76-.98-.21-.35-.37-.73-.49-1.15-.11-.42-.17-.83-.17-1.28s.06-.86,.17-1.28c.12-.4,.28-.78,.49-1.15,.21-.35,.47-.68,.76-.96,.29-.3,.62-.55,.97-.76,.36-.2,.74-.37,1.15-.48,.41-.12,.84-.17,1.28-.17s.87,.05,1.28,.17c.41,.12,.79,.28,1.15,.48,.35,.22,.68,.47,.97,.76,.29,.28,.55,.61,.75,.96,.21,.37,.37,.75,.48,1.15,.12,.42,.17,.85,.17,1.28Zm-1.85,0c0-.4-.08-.78-.23-1.15-.15-.37-.37-.68-.63-.95-.26-.27-.58-.47-.94-.63-.36-.15-.74-.23-1.15-.23s-.8,.08-1.16,.23c-.36,.17-.67,.37-.94,.63-.27,.27-.48,.58-.64,.95-.15,.37-.23,.75-.23,1.15s.08,.8,.23,1.15c.16,.37,.37,.68,.64,.95,.27,.27,.58,.48,.94,.63,.36,.15,.74,.23,1.16,.23s.79-.08,1.15-.23c.36-.15,.68-.37,.94-.63,.27-.27,.48-.58,.63-.95,.16-.35,.23-.73,.23-1.15Z"/>
      </g>
      <g>
        <path class="cls-4" d="M30.85,28.99c0-4.54,3.68-8.21,8.21-8.21s8.21,3.67,8.21,8.21v1.25c1.02,.28,1.76,1.18,1.76,2.23,0,1.3-1.12,2.34-2.49,2.34h-.06c-1.32,2.76-4.15,4.67-7.41,4.67s-6.09-1.91-7.41-4.67h-.06c-1.38,0-2.49-1.05-2.49-2.34,0-1.05,.74-1.94,1.76-2.23v-1.25Z"/>
        <path class="cls-2" d="M39.06,40.3c-3.3,0-6.36-1.83-7.94-4.71-1.64-.24-2.86-1.55-2.86-3.14,0-1.18,.7-2.26,1.76-2.79v-.68c0-4.99,4.06-9.04,9.04-9.04s9.04,4.06,9.04,9.04v.68c1.06,.54,1.76,1.61,1.76,2.79,0,1.6-1.25,2.93-2.87,3.15-1.58,2.87-4.64,4.7-7.94,4.7Zm0-18.7c-4.07,0-7.38,3.31-7.38,7.38v1.88l-.61,.17c-.68,.19-1.15,.77-1.15,1.43,0,.83,.75,1.51,1.66,1.51h.52l.29,.47c1.22,2.55,3.84,4.2,6.67,4.2s5.44-1.65,6.67-4.2l.23-.47h.52c.98,0,1.73-.68,1.73-1.51,0-.65-.47-1.24-1.15-1.43l-.61-.17v-1.88c0-4.07-3.31-7.38-7.38-7.38Z"/>
      </g>
      <path class="cls-2" d="M59.83,53.97c-.4,0-.76-.29-.82-.7l-.03-.18c-.53-3.52-2.58-6.62-5.6-8.51-3.02-1.88-6.69-2.34-10.08-1.28-2.75,.86-5.77,.83-8.51-.09-3.49-1.16-7.27-.69-10.37,1.29-3.07,1.96-5.08,5.14-5.5,8.74-.05,.45-.47,.77-.92,.73-.46-.05-.78-.47-.73-.92,.48-4.1,2.76-7.72,6.26-9.95,3.53-2.25,7.83-2.78,11.79-1.46,2.42,.81,5.08,.83,7.49,.08,3.85-1.21,8.02-.68,11.45,1.46,3.43,2.14,5.75,5.66,6.36,9.67l.03,.18c.07,.45-.24,.88-.69,.95-.04,0-.09,0-.13,0Z"/>
      <path class="cls-2" d="M39.06,71.15c-.14,0-.27-.03-.4-.1l-10.28-5.57c-8.55-4.65-14.19-13.2-15.09-22.88V23.37c0-.31,.17-.6,.45-.74l24.93-12.57c.24-.12,.51-.12,.75,0l24.93,12.57c.28,.14,.46,.43,.46,.74v19.16c-1.82,9.94-7.8,18.41-16.43,23.37l-8.92,5.14c-.13,.07-.27,.11-.41,.11ZM14.96,23.88v18.65c.84,9.05,6.15,17.11,14.22,21.49l9.87,5.35,8.52-4.91c8.2-4.72,13.89-12.77,15.61-22.08V23.88s-24.11-12.15-24.11-12.15L14.96,23.88Z"/>
    </g>
  </g>
</svg>