<?xml version="1.0" encoding="UTF-8"?>
<svg id="_레이어_2" data-name="레이어 2" xmlns="http://www.w3.org/2000/svg" viewBox="0 0 81.44 81.44">
  <defs>
    <style>
      .cls-1 {
        fill: #04c;
      }

      .cls-2 {
        fill: #fb8;
      }

      .cls-3 {
        opacity: .15;
      }

      .cls-4 {
        opacity: .35;
      }

      .cls-5 {
        fill: #05f;
        fill-rule: evenodd;
      }
    </style>
  </defs>
  <g id="_레이어_1-2" data-name="레이어 1">
    <g>
      <g class="cls-4">
        <ellipse class="cls-2" cx="32.41" cy="34.07" rx="9.97" ry="14.96"/>
      </g>
      <path class="cls-1" d="M41.55,51.47c-5.67,0-10.92-3.22-13.52-8.24-2.71-.24-4.77-2.35-4.77-4.91,0-1.99,1.21-3.73,3.08-4.51v-1.65c0-8.38,6.82-15.2,15.2-15.2s15.2,6.82,15.2,15.2v1.65c1.87,.78,3.08,2.53,3.08,4.51,0,2.59-2.1,4.72-4.77,4.92-2.59,5.02-7.84,8.23-13.51,8.23Zm0-32.85c-7.47,0-13.54,6.07-13.54,13.54v2.86l-.6,.17c-1.48,.43-2.48,1.68-2.48,3.13,0,1.81,1.58,3.28,3.53,3.28h.53l.33,.47c2.23,4.7,7.04,7.74,12.24,7.74s10.01-3.04,12.24-7.74l.23-.47h.53c2.05,0,3.63-1.47,3.63-3.27,0-1.44-1-2.7-2.48-3.13l-.6-.17v-2.86c0-7.47-6.07-13.54-13.54-13.54Z"/>
      <g class="cls-3">
        <path class="cls-5" d="M75.12,61.4c-7,6.05-16.12,9.72-26.09,9.72-22.03,0-39.89-17.86-39.89-39.89,0-7.37,2-14.28,5.48-20.2C6.18,18.34,.83,29.14,.83,41.2c0,22.03,17.86,39.89,39.89,39.89,14.66,0,27.47-7.91,34.4-19.69Z"/>
      </g>
      <path class="cls-1" d="M14.13,70.64s-.07,0-.11,0c-.46-.06-.78-.48-.72-.93l.83-6.4c.56-3.33,2.39-6.18,5.18-8.04,2.78-1.86,6.11-2.48,9.38-1.74l8.72,1.99c2.29,.52,4.7,.52,6.99,0l8.85-2c3.3-.75,6.67-.14,9.51,1.72,2.83,1.85,4.74,4.7,5.37,8.02l.84,5.22c.07,.45-.24,.88-.69,.95-.46,.08-.88-.24-.95-.69l-.83-5.2c-.55-2.85-2.2-5.32-4.65-6.92-2.45-1.6-5.37-2.13-8.23-1.49l-8.85,2c-2.53,.57-5.2,.57-7.73,0l-8.72-1.99c-2.82-.64-5.68-.11-8.08,1.5-2.4,1.61-3.98,4.06-4.46,6.91l-.83,6.37c-.05,.42-.41,.72-.82,.72Z"/>
      <path class="cls-1" d="M40.72,81.44C18.27,81.44,0,63.17,0,40.72S18.27,0,40.72,0s40.72,18.27,40.72,40.72-18.27,40.72-40.72,40.72ZM40.72,1.66C19.18,1.66,1.66,19.18,1.66,40.72s17.52,39.06,39.06,39.06,39.06-17.52,39.06-39.06S62.26,1.66,40.72,1.66Z"/>
    </g>
  </g>
</svg>