<?xml version="1.0" encoding="UTF-8"?>
<svg id="_레이어_2" data-name="레이어 2" xmlns="http://www.w3.org/2000/svg" viewBox="0 0 76.51 88.09">
  <defs>
    <style>
      .cls-1 {
        fill: #05f;
      }

      .cls-2 {
        fill: #04c;
      }

      .cls-3 {
        fill: #fff;
      }

      .cls-4 {
        fill: #ff6b00;
      }

      .cls-5 {
        opacity: .2;
      }

      .cls-6 {
        opacity: .8;
      }
    </style>
  </defs>
  <g id="_레이어_1-2" data-name="레이어 1">
    <g>
      <g class="cls-5">
        <rect class="cls-1" x="21.64" y="37.4" width="26.59" height="19.94" rx="1.66" ry="1.66"/>
      </g>
      <circle class="cls-3" cx="49.06" cy="53.19" r="14.13"/>
      <path class="cls-2" d="M33.27,57.62h-11.63c-3.21,0-5.82-2.61-5.82-5.82V25.76c0-.46,.37-.83,.83-.83h14.64c1.24,0,2.41,.55,3.2,1.51l3.1,3.75h18.94c.46,0,.83,.37,.83,.83v5.54c0,.46-.37,.83-.83,.83s-.83-.37-.83-.83v-4.71h-18.5c-.25,0-.48-.11-.64-.3l-3.35-4.05c-.48-.58-1.18-.91-1.92-.91h-13.81v25.21c0,2.29,1.86,4.16,4.16,4.16h11.63c.46,0,.83,.37,.83,.83s-.37,.83-.83,.83Z"/>
      <path class="cls-2" d="M29.11,31.3h-7.2c-.46,0-.83-.37-.83-.83s.37-.83,.83-.83h7.2c.46,0,.83,.37,.83,.83s-.37,.83-.83,.83Z"/>
      <path class="cls-2" d="M38.26,88.09c-.14,0-.29-.04-.42-.11L.42,66.37c-.26-.15-.42-.42-.42-.72V22.44c0-.3,.16-.57,.42-.72L37.84,.11c.26-.15,.57-.15,.83,0l37.42,21.61c.26,.15,.42,.42,.42,.72v43.21c0,.3-.16,.57-.42,.72l-37.42,21.61c-.13,.07-.27,.11-.42,.11ZM1.66,65.17l36.59,21.13,36.59-21.13V22.92L38.26,1.79,1.66,22.92v42.25Z"/>
      <path class="cls-2" d="M48.25,63.98c-.37,0-.74-.01-1.11-.05-3.11-.25-6.05-1.6-8.29-3.81-2.22-2.22-3.6-5.15-3.87-8.26-.27-3.11,.57-6.24,2.38-8.81,1.81-2.57,4.47-4.43,7.51-5.24,3.04-.81,6.27-.53,9.11,.8,.42,.19,.6,.69,.4,1.11-.19,.42-.69,.6-1.1,.4-2.49-1.16-5.32-1.41-7.98-.7-2.66,.71-4.99,2.34-6.58,4.59-1.58,2.25-2.32,4.99-2.08,7.71,.24,2.72,1.44,5.29,3.38,7.23,1.96,1.93,4.54,3.12,7.26,3.33,2.73,.24,5.47-.52,7.74-2.11,2.24-1.58,3.87-3.91,4.57-6.58,.56-2.14,.51-4.37-.16-6.47-.14-.44,.1-.9,.54-1.04,.43-.14,.9,.1,1.04,.54,.76,2.4,.82,4.95,.18,7.39-.8,3.04-2.66,5.71-5.22,7.51-2.28,1.6-4.98,2.45-7.72,2.45Z"/>
      <path class="cls-2" d="M48.24,41.14c-.46,0-.83-.37-.83-.83v-4.16c0-.46,.37-.83,.83-.83s.83,.37,.83,.83v4.16c0,.46-.37,.83-.83,.83Z"/>
      <path class="cls-2" d="M48.24,66.08c-.46,0-.83-.37-.83-.83v-4.16c0-.46,.37-.83,.83-.83s.83,.37,.83,.83v4.16c0,.46-.37,.83-.83,.83Z"/>
      <path class="cls-2" d="M62.79,51.54h-4.16c-.46,0-.83-.37-.83-.83s.37-.83,.83-.83h4.16c.46,0,.83,.37,.83,.83s-.37,.83-.83,.83Z"/>
      <path class="cls-2" d="M37.84,51.54h-4.16c-.46,0-.83-.37-.83-.83s.37-.83,.83-.83h4.16c.46,0,.83,.37,.83,.83s-.37,.83-.83,.83Z"/>
      <g class="cls-6">
        <path class="cls-4" d="M48.23,57.06c-3.51,0-6.37-2.86-6.37-6.37s2.86-6.37,6.37-6.37,6.37,2.86,6.37,6.37-2.86,6.37-6.37,6.37Zm0-11.08c-2.6,0-4.71,2.11-4.71,4.71s2.11,4.71,4.71,4.71,4.71-2.11,4.71-4.71-2.11-4.71-4.71-4.71Z"/>
      </g>
    </g>
  </g>
</svg>