<?xml version="1.0" encoding="UTF-8"?>
<svg id="_레이어_2" data-name="레이어 2" xmlns="http://www.w3.org/2000/svg" viewBox="0 0 76.52 88.09">
  <defs>
    <style>
      .cls-1 {
        fill: #05f;
      }

      .cls-2 {
        fill: #04c;
      }

      .cls-3 {
        fill: #fff;
      }

      .cls-4 {
        fill: #ff6b00;
      }

      .cls-5 {
        opacity: .2;
      }
    </style>
  </defs>
  <g id="_레이어_1-2" data-name="레이어 1">
    <g>
      <g class="cls-5">
        <path class="cls-1" d="M21.64,40.72c0-.92,.75-1.66,1.66-1.66h23.27c.91,0,1.66,.74,1.66,1.66v12.6c0,1.66-3.37,3.64-5.04,3.51-4.4-.35-11.19,.76-19.68,1.93-1,.13-1.88-.65-1.88-1.65v-16.39Z"/>
      </g>
      <circle class="cls-3" cx="48.23" cy="52.35" r="14.96"/>
      <path class="cls-2" d="M33.28,59.29h-11.63c-3.21,0-5.82-2.61-5.82-5.82V27.42c0-.46,.37-.83,.83-.83h12.98c1.24,0,2.41,.55,3.2,1.51l3.11,3.75h20.6c.46,0,.83,.37,.83,.83v5.54c0,.46-.37,.83-.83,.83s-.83-.37-.83-.83v-4.71h-20.16c-.25,0-.48-.11-.64-.3l-3.36-4.05c-.48-.58-1.18-.91-1.92-.91h-12.15v25.21c0,2.29,1.86,4.16,4.16,4.16h11.63c.46,0,.83,.37,.83,.83s-.37,.83-.83,.83Z"/>
      <path class="cls-2" d="M29.12,32.96h-7.2c-.46,0-.83-.37-.83-.83s.37-.83,.83-.83h7.2c.46,0,.83,.37,.83,.83s-.37,.83-.83,.83Z"/>
      <path class="cls-2" d="M38.26,88.09c-.14,0-.29-.04-.42-.11L.42,66.37c-.26-.15-.42-.42-.42-.72V22.44c0-.3,.16-.57,.42-.72L37.85,.11c.26-.15,.57-.15,.83,0l37.43,21.61c.26,.15,.42,.42,.42,.72v43.21c0,.3-.16,.57-.42,.72l-37.43,21.61c-.13,.07-.27,.11-.42,.11ZM1.66,65.17l36.6,21.13,36.6-21.13V22.92L38.26,1.79,1.66,22.92v42.25Z"/>
      <path class="cls-2" d="M34.47,52.55c0,.45,.38,.81,.85,.81s.81-.38,.81-.85l-1.66,.03Zm2.78,5.47c-.45-.12-.9,.15-1.01,.6l-1.93,7.21c-.12,.45,.15,.9,.58,1.03,.45,.12,.9-.15,1.01-.6l1.73-6.42,6.42,1.71c.45,.12,.9-.15,1.01-.6,.12-.43-.13-.9-.58-1.01l-7.23-1.93Zm19.75,2.68c-4.6,4.84-12.27,5.02-17.1,.42l-1.15,1.21c5.5,5.24,14.21,5.02,19.46-.48l-1.21-1.15Zm-17.52-16.69c4.6-4.84,12.27-5.02,17.1-.41l1.15-1.2c-5.5-5.24-14.21-5.03-19.46,.47l1.21,1.15Zm17.1-.41c4.84,4.61,5.02,12.27,.42,17.1l1.21,1.15c5.24-5.5,5.02-14.21-.48-19.45l-1.15,1.2Zm-20.44,8.93c-.05-3.05,1.06-6.12,3.34-8.51l-1.21-1.15c-2.58,2.72-3.84,6.21-3.79,9.69l1.66-.03Zm3.76,8.59c-.86-.81-1.58-1.73-2.13-2.71l-1.45,.85c.65,1.1,1.45,2.14,2.43,3.07l1.15-1.21Z"/>
      <rect class="cls-2" x="47.25" y="39.02" width="1.66" height="3.32"/>
      <rect class="cls-2" x="47.25" y="62.66" width="1.66" height="3.32"/>
      <rect class="cls-2" x="58.05" y="51.49" width="3.32" height="1.66"/>
      <path class="cls-4" d="M48.08,54.91c-.21,0-.41-.08-.57-.22l-5.17-4.83c-.33-.31-.35-.84-.04-1.18,.31-.33,.84-.35,1.18-.04l4.49,4.2,6.09-8.12c.27-.37,.8-.44,1.16-.17,.37,.27,.44,.8,.17,1.16l-6.65,8.86c-.14,.19-.36,.31-.59,.33-.02,0-.05,0-.07,0Z"/>
      <g>
        <circle class="cls-3" cx="48.23" cy="53.35" r="1.66"/>
        <path class="cls-4" d="M48.23,55.85c-1.37,0-2.49-1.12-2.49-2.49s1.12-2.49,2.49-2.49,2.49,1.12,2.49,2.49-1.12,2.49-2.49,2.49Zm0-3.32c-.46,0-.83,.37-.83,.83s.37,.83,.83,.83,.83-.37,.83-.83-.37-.83-.83-.83Z"/>
      </g>
    </g>
  </g>
</svg>